<?xml version="1.0" standalone="no"?>
<!DOCTYPE svg PUBLIC "-//W3C//DTD SVG 20010904//EN"
 "http://www.w3.org/TR/2001/REC-SVG-20010904/DTD/svg10.dtd">
<svg version="1.0" xmlns="http://www.w3.org/2000/svg"
 width="400.000000pt" height="400.000000pt" viewBox="0 0 400.000000 400.000000"
 preserveAspectRatio="xMidYMid meet">
<metadata>
Created by potrace 1.14, written by Peter Selinger 2001-2017
</metadata>
<g transform="translate(0.000000,400.000000) scale(0.100000,-0.100000)"
fill="#000000" stroke="none">
<path d="M1776 3983 c-4 -5 -12 -9 -17 -9 -5 -1 -12 -2 -16 -3 -4 0 1 -7 11
-14 14 -10 16 -19 10 -38 -4 -13 -7 -30 -5 -38 1 -7 -2 -10 -8 -7 -13 8 -10
56 3 56 5 0 7 2 4 5 -8 8 -39 -6 -33 -15 7 -11 -2 -16 -42 -25 -26 -5 -33 -3
-33 9 0 22 -13 20 -28 -4 -7 -12 -17 -18 -22 -15 -5 3 -18 -3 -29 -14 -10 -10
-25 -23 -32 -27 -45 -29 -89 -131 -89 -206 0 -35 -6 -59 -21 -80 -12 -16 -18
-32 -15 -35 3 -4 6 -1 6 5 0 7 5 12 10 12 6 0 10 -9 10 -21 0 -14 -5 -19 -15
-16 -8 4 -17 1 -21 -4 -10 -17 6 -118 22 -133 8 -8 14 -19 14 -24 0 -6 6 -13
13 -15 8 -4 9 -8 1 -14 -18 -14 -14 -83 11 -213 14 -69 28 -135 31 -148 5 -18
2 -24 -15 -29 -11 -3 -21 -9 -21 -14 0 -5 6 -6 14 -3 18 7 26 -42 29 -163 1
-46 5 -83 9 -83 3 0 6 62 5 138 -2 169 9 291 34 360 10 29 19 67 19 85 1 18 9
50 20 72 11 22 19 44 20 48 0 5 9 21 20 37 28 40 101 70 183 77 46 4 76 12 87
23 16 16 18 16 29 -2 7 -12 18 -17 27 -14 28 11 158 -16 182 -37 12 -11 22
-18 22 -14 0 3 12 -6 28 -20 15 -14 42 -32 61 -40 27 -12 32 -18 26 -36 -4
-12 -9 -33 -11 -47 -2 -14 -7 -39 -10 -57 -4 -23 1 -47 21 -87 26 -53 27 -63
31 -243 2 -103 0 -207 -5 -230 -9 -45 2 -60 13 -20 8 23 15 132 15 205 0 28 4
41 11 37 6 -3 10 3 10 14 0 12 5 21 10 21 6 0 10 6 10 13 0 6 6 24 14 38 11
21 12 56 4 178 -8 132 -7 155 8 186 12 26 14 48 9 95 -4 33 -11 63 -16 66 -5
3 -9 12 -9 19 0 22 -59 116 -92 147 -18 18 -28 37 -28 57 0 43 -18 48 -26 6
-7 -37 -38 -85 -56 -85 -6 0 -3 11 6 25 15 22 15 25 1 25 -13 0 -15 11 -13 63
3 55 1 62 -15 62 -10 0 -24 8 -31 17 -8 11 -17 14 -27 7 -8 -5 -27 -9 -43 -9
-26 0 -28 2 -21 28 3 15 7 37 7 49 0 12 8 24 17 26 9 3 6 5 -9 6 -14 0 -33 -8
-43 -19 -21 -25 -22 -31 -2 -24 11 5 15 -1 15 -20 0 -14 -6 -26 -12 -26 -9 0
-8 -4 2 -11 13 -9 13 -10 0 -6 -8 2 -14 12 -12 22 3 13 -1 16 -14 11 -10 -4
-21 -1 -26 6 -5 9 -8 8 -8 -6 0 -11 -5 -16 -13 -13 -7 3 -24 -6 -37 -20 -21
-22 -24 -23 -33 -8 -11 20 1 75 12 56 6 -9 10 -7 14 8 3 14 -3 25 -20 36 -28
19 -42 13 -24 -9 7 -8 8 -17 3 -20 -6 -3 -13 1 -16 10 -4 11 -14 15 -31 12
-17 -4 -25 -1 -25 8 0 8 5 14 11 14 5 0 7 5 4 10 -4 6 6 10 22 11 25 0 26 1 8
9 -26 11 -40 12 -49 3z m-68 -118 c9 -20 9 -25 -2 -25 -13 0 -26 20 -26 41 0
18 17 8 28 -16z m-45 -35 c-7 -32 -13 -38 -13 -15 0 14 -3 15 -15 5 -8 -7 -15
-21 -15 -31 0 -11 -4 -19 -10 -19 -16 0 -12 37 6 54 8 9 13 16 9 16 -3 0 -4 4
-1 8 2 4 14 8 25 8 17 0 19 -5 14 -26z m207 -47 c0 -7 -6 -10 -15 -7 -8 4 -15
1 -15 -5 0 -6 7 -11 16 -11 8 0 12 -4 9 -10 -4 -6 -13 -5 -25 2 -18 12 -21 42
-5 67 6 11 11 10 22 -4 7 -11 13 -25 13 -32z m140 29 c0 -10 -7 -27 -15 -38
-14 -18 -15 -17 -9 11 10 47 24 62 24 27z m-310 -2 c0 -5 -4 -10 -10 -10 -5 0
-10 5 -10 10 0 6 5 10 10 10 6 0 10 -4 10 -10z m100 -41 c0 -6 -4 -7 -10 -4
-5 3 -10 11 -10 16 0 6 5 7 10 4 6 -3 10 -11 10 -16z m-126 -4 c-4 -8 -8 -15
-10 -15 -2 0 -4 7 -4 15 0 8 4 15 10 15 5 0 7 -7 4 -15z m346 -9 c0 -3 -4 -8
-10 -11 -5 -3 -10 -1 -10 4 0 6 5 11 10 11 6 0 10 -2 10 -4z m-380 -60 c0 -3
-4 -8 -10 -11 -5 -3 -10 -1 -10 4 0 6 5 11 10 11 6 0 10 -2 10 -4z m-134 -112
c19 -9 37 -20 40 -25 9 -15 -15 -10 -43 8 -26 17 -27 17 -20 0 3 -9 2 -17 -2
-17 -13 0 -18 19 -18 75 0 38 1 41 4 13 3 -31 10 -40 39 -54z m704 46 c-7 -16
-16 -30 -21 -30 -12 0 -11 6 7 41 20 39 31 30 14 -11z m29 -54 c-9 -8 -10 -3
-5 23 3 18 7 43 8 55 1 11 3 1 5 -23 3 -26 -1 -48 -8 -55z m-26 14 c-5 -18
-33 -30 -33 -14 0 5 29 32 37 34 0 0 -1 -9 -4 -20z m-616 4 c-3 -3 -12 -4 -19
-1 -8 3 -5 6 6 6 11 1 17 -2 13 -5z m640 -56 c-3 -8 -6 -5 -6 6 -1 11 2 17 5
13 3 -3 4 -12 1 -19z"/>
<path d="M1918 3943 c-23 -6 -23 -17 -1 -34 15 -12 16 -12 11 3 -9 21 2 31 19
17 10 -9 13 -8 13 5 0 16 -9 18 -42 9z"/>
<path d="M2184 3895 c3 -8 1 -17 -4 -20 -6 -4 -10 -1 -10 4 0 6 -4 11 -9 11
-4 0 -6 -12 -3 -27 3 -16 7 -22 9 -15 5 14 49 17 57 3 3 -5 -2 -8 -11 -7 -13
1 -16 -10 -17 -57 -1 -31 1 -57 4 -57 12 0 51 70 45 79 -3 6 5 16 19 23 40 18
33 38 -14 38 -22 0 -40 5 -40 10 0 6 10 10 22 10 29 0 20 6 -21 14 -27 5 -32
3 -27 -9z"/>
<path d="M1671 3165 c-18 -8 -44 -15 -57 -15 -14 0 -30 -10 -40 -25 -21 -33
-14 -39 22 -20 16 8 35 15 42 15 21 0 13 -20 -11 -29 -23 -9 -60 -55 -51 -63
2 -3 27 -3 54 0 31 3 50 1 50 -6 0 -6 -3 -12 -7 -15 -5 -2 -2 -2 5 0 8 1 35 3
60 3 35 0 54 6 75 24 18 15 26 30 21 37 -4 8 -3 9 4 5 25 -15 11 14 -25 53
-44 48 -89 60 -142 36z m92 -99 c7 -17 -1 -26 -20 -26 -8 0 -11 5 -8 10 3 6 1
10 -4 10 -6 0 -11 5 -11 10 0 15 37 12 43 -4z"/>
<path d="M2055 3161 c-22 -4 -30 -12 -30 -27 -1 -12 -8 -29 -18 -38 -19 -20
-23 -41 -5 -30 8 5 9 2 5 -10 -6 -16 -3 -17 20 -13 16 4 22 4 16 1 -27 -12
-11 -24 32 -24 42 0 45 2 35 19 -14 26 -13 28 10 34 11 3 30 -3 44 -14 13 -10
30 -19 37 -19 19 0 -32 40 -60 47 -14 3 -31 12 -38 19 -10 9 -7 13 14 19 31 7
79 -2 113 -23 l25 -15 -20 20 c-16 16 -137 67 -148 62 -1 -1 -15 -4 -32 -8z"/>
<path d="M1794 2859 c-8 -13 13 -29 39 -29 20 0 22 11 5 28 -15 15 -35 15 -44
1z"/>
<path d="M1935 2850 c3 -5 20 -10 36 -10 18 0 28 4 24 10 -3 6 -20 10 -36 10
-18 0 -28 -4 -24 -10z"/>
<path d="M1780 2820 c0 -5 7 -10 16 -10 8 0 12 5 9 10 -3 6 -10 10 -16 10 -5
0 -9 -4 -9 -10z"/>
<path d="M2350 2785 c0 -8 4 -15 10 -15 5 0 7 7 4 15 -4 8 -8 15 -10 15 -2 0
-4 -7 -4 -15z"/>
<path d="M1910 2750 c0 -5 5 -10 11 -10 5 0 7 5 4 10 -3 6 -8 10 -11 10 -2 0
-4 -4 -4 -10z"/>
<path d="M1848 2711 c10 -6 6 -10 -15 -14 -15 -3 -31 -1 -34 5 -4 6 -18 4 -38
-7 -26 -13 -36 -14 -47 -4 -11 9 -18 8 -34 -6 -11 -10 -20 -25 -19 -34 0 -13
2 -13 7 2 7 16 8 16 24 -2 13 -16 29 -19 85 -19 67 1 67 1 29 12 l-39 11 28
15 c15 8 45 15 67 15 31 0 36 2 24 11 -9 6 -13 14 -9 17 3 4 -5 7 -18 7 -17 0
-20 -3 -11 -9z"/>
<path d="M1908 2713 c6 -2 18 -2 25 0 6 3 1 5 -13 5 -14 0 -19 -2 -12 -5z"/>
<path d="M1944 2682 c4 -6 13 -9 20 -6 8 3 17 1 21 -5 3 -6 15 -11 26 -11 10
0 19 -5 19 -11 0 -7 -9 -9 -21 -6 -12 3 -18 2 -13 -3 10 -9 35 -13 75 -11 32
1 36 31 4 31 -12 0 -25 3 -29 8 -4 4 -17 8 -29 9 -12 1 -35 5 -51 9 -20 5 -27
3 -22 -4z"/>
<path d="M1540 2567 c0 -20 4 -37 10 -37 5 0 7 14 3 33 -8 45 -13 47 -13 4z"/>
<path d="M1836 2551 c-4 -6 -5 -15 -2 -20 8 -13 45 -20 52 -10 3 5 14 9 25 9
10 0 19 5 19 10 0 6 -6 10 -14 10 -7 0 -27 3 -44 6 -17 4 -32 1 -36 -5z"/>
<path d="M1573 2523 c-20 -8 -15 -28 17 -76 17 -25 30 -49 30 -55 0 -6 5 -12
12 -14 7 -3 9 -11 3 -24 -7 -17 -8 -17 -12 -1 -6 25 -18 21 -45 -14 -13 -17
-40 -50 -61 -72 -21 -22 -48 -54 -60 -71 -11 -17 -24 -33 -27 -36 -3 -3 -20
-25 -37 -48 -17 -24 -50 -53 -72 -64 -23 -11 -38 -24 -35 -29 3 -5 -2 -6 -10
-3 -8 3 -24 -4 -36 -16 -11 -11 -25 -18 -30 -15 -6 4 -10 1 -10 -4 0 -6 -18
-18 -40 -27 -22 -9 -40 -20 -40 -24 0 -4 -11 -11 -25 -14 -14 -4 -25 -11 -25
-16 0 -6 -6 -10 -14 -10 -8 0 -18 -5 -22 -12 -5 -7 -3 -8 6 -3 10 6 12 4 6
-10 -4 -11 -2 -22 6 -27 9 -5 6 -8 -10 -8 -13 0 -21 4 -18 9 4 5 -2 7 -13 4
-21 -5 -34 19 -26 51 6 19 5 20 -8 4 -13 -16 -15 -16 -25 7 -6 14 -9 32 -6 40
7 18 -10 20 -23 3 -6 -7 -19 -38 -29 -68 -10 -30 -24 -58 -30 -62 -7 -4 -15
-28 -18 -53 -4 -24 -15 -52 -24 -61 -9 -9 -17 -23 -18 -31 -3 -18 -1 -17 -47
-30 -35 -11 -39 -10 -46 10 -6 16 -9 8 -14 -34 -4 -30 -7 -76 -7 -104 0 -60
-10 -78 -35 -69 -13 5 -16 4 -11 -4 4 -7 2 -10 -6 -7 -7 3 -21 20 -32 38 -73
128 -76 136 -86 229 -5 51 -10 103 -10 116 0 13 -6 22 -15 22 -8 0 -15 7 -15
15 0 21 -88 20 -117 0 -14 -10 -32 -13 -48 -9 -19 5 -25 2 -25 -9 0 -9 -16
-33 -36 -54 -40 -42 -64 -83 -64 -109 0 -9 -21 -37 -46 -62 -44 -43 -50 -45
-95 -43 l-49 2 0 -786 0 -785 530 0 529 0 32 103 c17 56 51 142 74 192 23 50
47 113 54 140 28 127 71 402 66 429 -3 21 -2 25 3 12 8 -19 40 93 64 226 11
58 3 168 -12 168 -10 0 -35 38 -45 69 -5 18 -4 22 5 16 9 -5 11 -4 6 4 -4 6
-11 9 -16 6 -11 -7 -61 65 -54 77 8 12 -32 64 -113 148 -40 41 -73 79 -73 84
0 5 -6 17 -14 25 -7 9 -20 40 -29 69 -13 44 -13 52 -1 52 8 0 17 -7 20 -15 7
-17 24 -20 24 -4 0 6 10 19 23 30 19 16 19 18 5 19 -22 0 -23 14 -2 35 10 10
24 13 36 9 14 -4 18 -2 14 5 -5 7 -1 8 10 4 15 -5 15 -7 0 -15 -9 -5 -16 -14
-16 -19 0 -9 85 44 100 62 3 3 38 26 79 50 40 24 83 56 95 72 51 67 159 187
168 187 23 0 -6 -52 -64 -115 -34 -36 -72 -81 -84 -98 -12 -18 -33 -41 -46
-52 -20 -17 -199 -140 -246 -170 -24 -15 -61 -59 -62 -72 0 -6 5 -15 12 -19 8
-5 9 -2 5 10 -4 11 4 26 25 46 17 17 34 30 37 30 3 0 18 11 33 25 15 14 29 24
30 23 2 -1 32 17 68 41 36 23 115 95 176 159 62 65 115 114 119 110 15 -14
-36 -84 -135 -184 -58 -58 -114 -111 -125 -117 -35 -19 -159 -111 -189 -139
-32 -32 -33 -30 46 -113 50 -54 188 -252 188 -272 0 -6 12 -25 26 -42 14 -17
21 -31 16 -31 -6 0 -13 6 -15 13 -3 7 -6 5 -6 -5 -1 -11 6 -18 17 -18 11 0 13
-3 5 -8 -7 -4 -12 -40 -14 -91 -1 -47 -8 -105 -16 -130 -21 -69 -59 -245 -68
-311 -2 -19 -11 -69 -20 -110 -8 -41 -22 -111 -31 -155 -9 -44 -27 -104 -41
-132 -13 -29 -21 -57 -18 -63 4 -6 1 -9 -6 -8 -7 2 -29 -44 -55 -117 -24 -66
-44 -121 -44 -122 0 -2 657 -3 1460 -3 l1460 0 0 812 c0 632 -3 809 -12 800
-7 -7 -19 -12 -28 -12 -9 0 -22 -12 -30 -27 -7 -16 -21 -44 -32 -63 -11 -19
-22 -43 -25 -52 -3 -10 -11 -18 -18 -18 -7 0 -15 -8 -18 -18 -5 -21 -44 -32
-113 -32 -32 0 -44 -4 -44 -15 0 -22 -9 -19 -43 18 -23 24 -31 43 -33 75 -3
35 -10 50 -44 82 -30 28 -40 46 -40 69 l0 31 -79 0 c-75 0 -80 1 -84 23 -2 12
-2 0 0 -28 3 -50 3 -50 -11 -20 -14 30 -14 29 -15 -32 -1 -34 -5 -65 -11 -68
-5 -3 -10 -23 -10 -44 0 -39 -22 -72 -35 -51 -3 5 0 10 8 10 10 0 16 19 21 68
15 153 17 212 7 212 -5 0 -13 -15 -16 -34 -4 -20 -16 -38 -29 -45 -12 -7 -27
-26 -33 -42 -8 -21 -16 -27 -27 -23 -9 3 -22 1 -30 -5 -11 -9 -15 -6 -20 14
-8 33 -30 27 -34 -8 -3 -28 -16 -32 -59 -21 -13 4 -23 14 -23 23 0 9 -5 22
-10 27 -6 6 -12 27 -14 48 -2 20 -5 38 -7 40 -2 2 -32 6 -65 9 l-62 6 20 -55
c11 -30 18 -57 15 -60 -7 -7 -35 7 -40 19 -2 7 -2 -1 1 -18 2 -16 9 -33 15
-36 5 -4 7 -17 4 -28 -7 -29 29 -171 44 -171 4 0 9 -10 13 -23 3 -12 26 -46
51 -75 25 -30 43 -58 40 -62 -7 -12 -54 14 -71 39 -9 12 -21 21 -27 21 -7 0
-21 14 -30 30 -10 17 -22 30 -27 30 -4 0 -13 24 -20 53 -7 28 -18 72 -25 97
-8 25 -21 72 -31 105 -18 61 -70 176 -84 185 -4 3 -9 14 -11 24 -2 11 -18 24
-35 30 -17 6 -39 19 -48 29 -19 18 -43 22 -64 9 -10 -7 -6 -24 17 -75 17 -37
35 -67 41 -67 5 0 10 -9 10 -19 0 -11 7 -32 17 -48 10 -19 14 -39 9 -56 -8
-32 -26 -36 -26 -6 0 14 -5 19 -14 16 -14 -6 -32 29 -55 108 -19 63 -43 115
-53 115 -6 0 -12 -9 -15 -20 -6 -24 -23 -27 -23 -4 0 8 -4 12 -10 9 -16 -10
-12 12 10 57 11 23 18 44 15 46 -3 3 -12 -12 -21 -33 -8 -21 -40 -69 -70 -107
-30 -37 -52 -73 -49 -78 4 -6 3 -10 -2 -9 -28 5 -44 -27 -69 -136 -4 -16 -22
-60 -41 -97 -19 -38 -31 -72 -28 -78 4 -6 1 -9 -5 -8 -7 2 -25 -22 -42 -53
-29 -55 -29 -57 -29 -215 1 -172 9 -384 17 -424 4 -19 3 -22 -6 -14 -7 7 -16
83 -23 193 -9 162 -12 181 -28 181 -10 0 -21 5 -25 12 -4 7 -3 8 4 4 8 -5 12
1 13 16 1 23 1 23 9 -2 6 -18 8 -5 9 45 2 98 19 194 41 233 11 17 16 40 13 49
-4 11 -3 14 5 9 15 -9 46 39 38 59 -6 17 11 71 20 62 3 -3 0 -15 -6 -27 -6
-12 -9 -24 -7 -27 9 -9 39 58 33 73 -3 8 -2 13 3 9 11 -6 31 82 23 103 -4 11
-2 13 8 7 10 -6 12 -4 7 8 -4 10 -2 16 6 14 7 -1 13 10 15 26 2 15 8 25 13 22
5 -4 9 -2 9 4 0 5 -5 13 -10 16 -6 3 -7 17 -4 31 3 13 2 24 -3 24 -13 0 -36
68 -27 82 4 7 9 43 10 81 1 38 7 74 13 80 8 8 11 7 11 -4 0 -9 16 -35 36 -58
25 -28 37 -52 36 -71 0 -15 8 -36 17 -45 17 -15 19 -15 25 1 4 9 4 26 1 38 -4
14 -3 17 3 8 6 -10 12 -8 26 6 16 19 16 20 -5 25 -23 6 -53 -15 -41 -28 4 -5
1 -5 -5 -1 -17 9 -17 41 0 58 17 17 30 51 17 43 -6 -3 -10 2 -10 11 0 10 -3
15 -6 11 -4 -3 -12 -1 -19 6 -7 7 -24 22 -39 35 -20 17 -25 29 -21 45 5 17 4
19 -4 7 -8 -12 -11 -7 -11 20 0 21 4 30 8 23 9 -14 9 64 0 87 -3 8 -14 44 -25
80 -16 51 -22 61 -28 45 -4 -11 -16 -45 -27 -75 -12 -30 -34 -82 -49 -114 -16
-32 -29 -67 -29 -77 0 -10 -6 -24 -13 -31 -38 -39 -67 -87 -61 -102 3 -9 1
-23 -5 -30 -16 -19 3 -30 29 -16 23 12 64 4 81 -16 9 -11 8 -14 -1 -14 -9 0
-8 -5 3 -18 16 -17 14 -21 -27 -68 -41 -46 -47 -49 -95 -50 -28 -1 -59 -3 -68
-4 -35 -4 31 -18 90 -19 79 -1 71 -20 -19 -41 -45 -11 -62 -19 -49 -22 11 -3
1 -7 -25 -8 -25 -1 -37 -4 -27 -7 9 -2 17 -8 17 -13 0 -11 -64 -22 -85 -14
-15 6 -16 3 -10 -17 9 -29 2 -25 52 -32 23 -3 43 -1 45 5 2 5 24 12 48 15 25
3 50 11 55 18 6 7 20 15 33 19 12 4 22 12 22 17 0 5 5 9 11 9 19 0 -5 -115
-29 -142 -8 -10 -12 -18 -8 -18 4 0 -2 -12 -13 -26 -12 -15 -21 -33 -21 -40 0
-8 -4 -14 -8 -14 -5 0 -26 -35 -46 -77 -21 -43 -51 -105 -67 -137 -16 -32 -29
-65 -29 -73 0 -7 -7 -16 -15 -19 -8 -4 -15 -15 -15 -25 0 -10 -3 -19 -8 -19
-4 0 -13 -10 -21 -21 -10 -17 -10 -23 0 -29 6 -5 9 -15 6 -25 -4 -9 -11 -13
-17 -10 -6 3 -13 -2 -17 -12 -3 -10 -20 -31 -37 -46 -26 -24 -29 -30 -18 -47
11 -18 10 -20 -12 -20 -19 0 -22 -4 -19 -24 6 -29 -21 -41 -67 -31 -34 7 -42
-10 -9 -20 16 -5 18 -10 8 -21 -15 -18 -93 -19 -86 -1 2 6 -2 27 -9 46 -8 18
-14 50 -14 71 0 52 -32 174 -64 242 -25 54 -26 62 -20 170 4 69 2 136 -5 172
-8 44 -8 76 1 125 6 36 15 68 19 71 4 3 9 19 12 35 4 28 5 29 12 8 8 -25 25
-31 25 -10 0 7 -6 21 -14 32 -21 32 -29 130 -11 145 8 7 19 27 23 44 5 19 16
32 28 34 37 7 44 29 21 75 -19 38 -23 89 -10 111 3 4 9 2 14 -5 6 -11 11 -11
20 -2 11 11 8 69 -6 125 -4 15 -4 40 0 55 l7 28 10 -27 c6 -17 14 -25 24 -21
8 3 14 0 14 -6 0 -6 7 -11 15 -11 8 0 15 -4 15 -9 0 -14 177 -43 197 -33 10 5
43 12 74 15 49 5 93 20 109 38 3 3 20 11 39 19 22 9 38 25 47 46 7 17 19 38
26 46 20 20 48 66 48 78 0 16 -23 7 -47 -17 -12 -13 -27 -23 -32 -23 -6 0 -22
-11 -36 -26 -14 -14 -29 -23 -33 -20 -5 3 -29 -5 -55 -18 -47 -25 -84 -24
-150 2 -20 9 -34 9 -52 0 -36 -16 -129 8 -169 44 -17 16 -38 27 -46 25 -10 -3
-22 10 -34 34 -20 40 -22 41 -43 32z m-57 -537 c-20 -28 -58 -71 -86 -95 -27
-24 -47 -48 -43 -54 4 -7 0 -8 -11 -4 -14 6 -16 3 -11 -16 4 -15 3 -18 -3 -9
-7 10 -15 8 -39 -12 -17 -14 -36 -26 -41 -26 -6 0 -15 -6 -19 -13 -4 -6 -26
-24 -48 -39 -45 -31 -70 -64 -55 -73 6 -3 10 1 10 11 0 13 3 14 15 4 8 -7 15
-18 15 -25 0 -8 6 -15 13 -18 6 -2 9 -8 4 -12 -4 -5 -14 0 -21 11 -8 10 -18
19 -23 20 -30 3 -62 28 -63 48 0 15 72 76 155 131 44 30 125 99 180 155 71 72
101 96 103 85 2 -10 -12 -40 -32 -69z m-85 -127 c-13 -10 -17 -19 -10 -19 7 0
10 -3 6 -6 -3 -3 -11 -3 -17 1 -8 5 -4 15 11 31 12 13 25 21 28 18 3 -3 -5
-14 -18 -25z m-21 -49 c0 -5 -4 -10 -10 -10 -5 0 -10 5 -10 10 0 6 5 10 10 10
6 0 10 -4 10 -10z m20 -36 c0 -8 -5 -12 -10 -9 -6 4 -8 11 -5 16 9 14 15 11
15 -7z m-60 -4 c0 -5 -5 -10 -11 -10 -5 0 -7 5 -4 10 3 6 8 10 11 10 2 0 4 -4
4 -10z m-109 -66 c12 -15 11 -16 -11 -9 -24 7 -24 6 -6 -7 13 -11 16 -17 7
-22 -6 -4 -18 0 -27 8 -9 9 -21 14 -27 10 -7 -3 -1 4 13 15 30 25 34 25 51 5z
m199 -63 c0 -6 -4 -13 -10 -16 -5 -3 -10 -16 -10 -28 0 -18 -2 -19 -10 -7 -8
12 -10 11 -10 -7 0 -12 5 -25 10 -28 6 -3 10 -17 10 -30 0 -13 -4 -27 -10 -30
-5 -3 -10 -17 -10 -31 0 -15 -6 -24 -15 -24 -8 0 -15 9 -15 21 0 11 -4 17 -10
14 -5 -3 -21 5 -34 19 -41 45 -44 26 -9 -52 9 -18 13 -35 9 -39 -3 -3 1 -11 8
-17 14 -11 33 -76 22 -76 -9 0 -46 92 -40 101 3 5 -4 19 -15 31 -12 12 -21 27
-21 34 0 7 -4 14 -9 16 -5 2 -12 17 -15 33 -4 18 -3 23 2 12 7 -16 9 -16 27
-3 11 9 26 16 34 16 7 0 34 23 59 50 44 48 62 60 62 41z m-93 -23 c-3 -8 -6
-5 -6 6 -1 11 2 17 5 13 3 -3 4 -12 1 -19z m890 0 c-3 -8 -6 -5 -6 6 -1 11 2
17 5 13 3 -3 4 -12 1 -19z m-1461 -17 c-7 -11 -76 -20 -76 -10 0 7 22 12 68
18 7 0 11 -3 8 -8z m454 -27 c0 -8 -4 -12 -10 -9 -5 3 -10 13 -10 21 0 8 5 12
10 9 6 -3 10 -13 10 -21z m102 19 c-6 -2 -10 -9 -6 -14 3 -5 -2 -9 -10 -9 -9
0 -16 4 -16 9 0 10 18 19 35 19 6 0 4 -2 -3 -5z m899 -20 c-12 -20 -14 -14 -5
12 4 9 9 14 11 11 3 -2 0 -13 -6 -23z m-1501 -13 c0 -5 -5 -10 -11 -10 -5 0
-7 5 -4 10 3 6 8 10 11 10 2 0 4 -4 4 -10z m59 -33 c1 -5 -6 -1 -15 7 -8 9
-12 21 -8 28 5 8 10 6 15 -8 4 -10 8 -23 8 -27z m2371 7 c0 -8 -4 -12 -10 -9
-5 3 -10 10 -10 16 0 5 5 9 10 9 6 0 10 -7 10 -16z m177 -6 c-3 -8 -6 -5 -6 6
-1 11 2 17 5 13 3 -3 4 -12 1 -19z m-239 -13 c2 -2 2 -27 0 -56 -3 -40 -6 -49
-12 -34 -31 78 -40 95 -55 99 -9 2 2 2 24 -1 22 -3 41 -7 43 -8z m-1706 -132
l11 -28 7 30 c8 30 8 30 9 3 0 -15 -3 -29 -8 -33 -12 -7 -41 22 -41 41 0 22 9
16 22 -13z m1908 -39 c0 -8 -4 -12 -10 -9 -5 3 -10 10 -10 16 0 5 5 9 10 9 6
0 10 -7 10 -16z m-1983 -131 c-3 -10 -5 -4 -5 12 0 17 2 24 5 18 2 -7 2 -21 0
-30z m1963 -97 c0 -28 -17 -43 -32 -28 -7 7 -6 17 1 31 16 28 31 27 31 -3z
m-532 -53 c14 -28 13 -138 -1 -157 -12 -16 -15 -17 -29 -3 -8 8 -23 15 -34 14
-22 -2 -32 32 -12 44 9 6 7 9 -9 9 -16 0 -23 6 -23 20 0 11 6 20 13 21 10 0
10 2 0 6 -26 10 -14 42 20 52 49 14 65 13 75 -6z m-1456 -65 c-8 -8 -9 -4 -5
13 4 13 8 18 11 10 2 -7 -1 -18 -6 -23z m789 22 c5 0 9 -13 9 -30 0 -22 -4
-28 -15 -24 -11 5 -13 2 -9 -10 4 -11 -1 -25 -15 -37 -25 -23 -27 -39 -6 -39
15 0 21 -44 16 -117 -1 -18 3 -33 9 -33 5 0 10 -9 10 -20 0 -11 -4 -20 -10
-20 -5 0 -10 -11 -10 -25 0 -16 -6 -25 -16 -25 -13 0 -15 10 -13 53 1 28 1 82
1 120 -2 54 -5 67 -18 67 -11 0 -14 5 -10 16 3 9 6 27 6 40 0 15 6 24 15 24 8
0 14 6 13 13 -2 7 7 12 20 11 30 -1 28 14 -3 22 -14 3 -22 10 -19 16 3 5 13 7
21 4 8 -3 19 -6 24 -6z m-563 -108 c5 -73 34 -185 50 -190 7 -2 12 5 12 18 0
18 5 21 35 18 40 -3 52 -21 17 -26 -12 -2 -20 -8 -17 -13 10 -14 -40 -29 -79
-22 -28 4 -37 12 -46 37 -17 46 -26 226 -11 226 6 0 11 10 11 23 1 45 24 -15
28 -71z m1759 -108 c-3 -3 -12 -4 -19 -1 -8 3 -5 6 6 6 11 1 17 -2 13 -5z
m-1469 -236 c9 -9 12 -9 12 3 0 12 2 12 10 -1 15 -23 12 -27 -16 -34 -31 -8
-49 5 -41 28 8 19 19 20 35 4z m222 -47 c0 -31 -4 -41 -21 -46 -11 -4 -23 -4
-26 -1 -4 3 1 6 10 6 13 0 17 9 17 40 0 22 5 40 10 40 6 0 10 -18 10 -39z
m-300 -62 c0 -5 -10 -9 -21 -9 -18 0 -19 2 -9 15 12 15 30 12 30 -6z m-24 -68
c-10 -16 -46 -20 -46 -5 0 8 10 14 26 14 14 0 23 -4 20 -9z m446 -45 c-9 -18
-11 -16 -11 19 0 33 1 37 10 21 8 -12 8 -25 1 -40z m-1372 -92 c0 -8 -5 -12
-10 -9 -6 4 -8 11 -5 16 9 14 15 11 15 -7z"/>
<path d="M2365 2243 c4 -10 14 -49 22 -88 8 -39 22 -76 31 -83 10 -7 28 -22
41 -33 13 -12 21 -15 19 -7 -3 7 2 18 10 24 8 6 15 24 16 40 1 19 6 29 16 29
15 0 20 6 20 26 0 6 -7 9 -15 5 -8 -3 -15 -1 -15 4 0 6 9 10 19 10 35 0 32 18
-5 30 -19 7 -38 9 -41 6 -4 -3 -1 -6 5 -6 7 0 12 -4 12 -10 0 -5 -13 -10 -30
-10 -24 0 -30 4 -30 21 0 11 -4 18 -9 15 -4 -3 -5 -25 0 -48 4 -24 5 -53 3
-64 -6 -22 18 -40 37 -29 5 4 6 -1 3 -9 -5 -14 -9 -13 -30 1 -19 12 -24 24
-24 57 0 60 -16 109 -41 124 -20 13 -21 12 -14 -5z"/>
<path d="M670 2058 c0 -39 -4 -58 -9 -50 -6 10 -10 7 -15 -13 -4 -15 -5 -30
-1 -33 3 -3 5 2 5 11 0 10 5 17 10 17 13 0 13 -23 1 -35 -6 -6 -4 -15 5 -23
12 -11 14 2 14 88 0 55 -2 100 -5 100 -3 0 -5 -28 -5 -62z"/>
<path d="M1274 2087 c5 -15 2 -17 -14 -12 -26 8 -47 -4 -29 -16 11 -7 9 -10
-8 -15 -13 -4 -23 -13 -23 -21 0 -8 -4 -12 -9 -8 -5 3 -12 1 -16 -5 -12 -19
20 -10 68 20 50 32 53 37 36 60 -9 13 -10 12 -5 -3z"/>
<path d="M1077 1983 c-19 -43 -17 -49 12 -33 21 11 27 35 13 57 -5 9 -13 1
-25 -24z"/>
<path d="M1715 1980 c10 -11 20 -20 23 -20 3 0 -3 9 -13 20 -10 11 -20 20 -23
20 -3 0 3 -9 13 -20z"/>
<path d="M2310 1961 c0 -13 51 -73 58 -67 2 3 -9 21 -27 41 -17 20 -31 31 -31
26z"/>
<path d="M2514 1935 c1 -13 8 -20 23 -21 12 -1 20 3 17 8 -3 5 -12 7 -19 4 -8
-3 -16 3 -18 12 -3 12 -4 11 -3 -3z"/>
<path d="M797 1921 c-4 -18 -6 -63 -6 -100 l2 -66 9 70 c5 39 7 84 6 100 l-3
30 -8 -34z"/>
<path d="M3323 1885 c0 -27 2 -38 4 -22 2 15 2 37 0 50 -2 12 -4 0 -4 -28z"/>
<path d="M650 1900 c0 -5 7 -7 15 -4 8 4 15 8 15 10 0 2 -7 4 -15 4 -8 0 -15
-4 -15 -10z"/>
<path d="M2310 1874 c0 -5 7 -18 15 -28 12 -16 15 -17 15 -4 0 8 -7 21 -15 28
-8 7 -15 9 -15 4z"/>
<path d="M2490 1850 c0 -5 5 -10 11 -10 5 0 7 5 4 10 -3 6 -8 10 -11 10 -2 0
-4 -4 -4 -10z"/>
<path d="M2370 1840 c0 -5 5 -10 11 -10 5 0 7 5 4 10 -3 6 -8 10 -11 10 -2 0
-4 -4 -4 -10z"/>
<path d="M2340 1785 c0 -8 5 -15 11 -15 5 0 7 -5 3 -12 -4 -7 -3 -8 4 -4 9 5
9 13 2 27 -13 23 -20 24 -20 4z"/>
<path d="M2910 1760 c-13 -8 -12 -10 3 -10 9 0 17 5 17 10 0 12 -1 12 -20 0z"/>
<path d="M2968 1743 c-28 -7 -21 -21 7 -15 14 2 25 8 25 13 0 9 -4 10 -32 2z"/>
<path d="M3220 1720 c0 -6 7 -10 15 -10 8 0 15 2 15 4 0 2 -7 6 -15 10 -8 3
-15 1 -15 -4z"/>
<path d="M1768 1703 c7 -3 16 -2 19 1 4 3 -2 6 -13 5 -11 0 -14 -3 -6 -6z"/>
<path d="M1265 1400 c10 -11 20 -20 22 -20 2 0 -1 9 -7 20 -6 11 -16 20 -22
20 -6 0 -3 -9 7 -20z"/>
<path d="M1310 1328 c0 -9 5 -20 10 -23 13 -8 13 5 0 25 -8 13 -10 13 -10 -2z"/>
<path d="M1760 1135 c0 -16 9 -19 34 -9 25 9 19 24 -9 24 -16 0 -25 -6 -25
-15z"/>
</g>
</svg>
